<svg width="21" height="14" viewBox="0 0 21 14" fill="none" xmlns="http://www.w3.org/2000/svg">
<g clip-path="url(#clip0_4334_30451)">
<path d="M0 0.00976562H20.9591V14.0098H0V0.00976562Z" fill="white"/>
<path d="M0 0.00976562H20.9591V3.7431H0V0.00976562ZM0 10.2764H20.9591V14.0098H0V10.2764Z" fill="#D03433"/>
<path d="M0 3.73486H20.9591V10.2846H0V3.73486Z" fill="#FBCA46"/>
<path d="M7.26562 6.54297H8.19714V7.00964H7.26562V6.54297V6.54297Z" fill="white"/>
<path d="M6.70735 7.94333C6.70735 8.22333 6.9868 8.41 7.26625 8.41C7.54571 8.41 7.82516 8.22333 7.82516 7.94333L7.91831 6.54333H6.61419L6.70735 7.94333V7.94333ZM6.14844 6.54333C6.14844 6.26333 6.33474 6.07666 6.52104 6.07666H7.91831C8.19777 6.07666 8.38407 6.26333 8.38407 6.44999V6.54333L8.29092 7.94333C8.19777 8.50333 7.82516 8.87666 7.26625 8.87666C6.70735 8.87666 6.33474 8.50333 6.24159 7.94333L6.14844 6.54333Z" fill="#A41517"/>
<path d="M6.33477 7.00961H8.1978V7.47627H7.73204L7.26628 8.40961L6.80053 7.47627H6.33477V7.00961V7.00961ZM4.9375 5.6096H5.86901V8.87627H4.9375V5.6096ZM8.66356 5.6096H9.59507V8.87627H8.66356V5.6096ZM6.33477 5.14294C6.33477 4.86294 6.52107 4.67627 6.80053 4.67627H7.73204C8.0115 4.67627 8.1978 4.86294 8.1978 5.14294V5.3296C8.1978 5.51627 8.10465 5.6096 7.91834 5.6096H6.52107C6.42792 5.6096 6.33477 5.51627 6.33477 5.42294V5.14294V5.14294Z" fill="#A41517"/>
</g>
<defs>
<clipPath id="clip0_4334_30451">
<rect width="21" height="14" fill="white"/>
</clipPath>
</defs>
</svg>
