<svg width="21" height="14" viewBox="0 0 21 14" fill="none" xmlns="http://www.w3.org/2000/svg">
<g clip-path="url(#clip0_4334_30421)">
<path d="M0 0H21V14.0002H0V0Z" fill="white"/>
<path d="M11.8125 0H9.1875V5.68748H0V8.31248H9.1875V14H11.8125V8.31248H21V5.68748H11.8125V0Z" fill="#D80027"/>
<path d="M16.15 9.43457L20.9986 12.1283V9.43457H16.15ZM12.7812 9.43457L20.9986 13.9998V12.7089L15.105 9.43457H12.7812ZM18.8098 13.9998L12.7812 10.6503V13.9998H18.8098Z" fill="#0052B4"/>
<path d="M12.7812 9.43457L20.9986 13.9998V12.7088L15.105 9.43457H12.7812Z" fill="white"/>
<path d="M12.7812 9.43457L20.9986 13.9998V12.7088L15.105 9.43457H12.7812Z" fill="#D80027"/>
<path d="M3.70539 9.43457L0 11.4931V9.43457H3.70539ZM8.2174 10.0151V13.9998H1.04553L8.2174 10.0151Z" fill="#0052B4"/>
<path d="M5.89366 9.43457L0 12.7088V13.9998L8.2174 9.43457H5.89366Z" fill="#D80027"/>
<path d="M4.84866 4.56521L0 1.87146V4.56521H4.84866ZM8.2174 4.56521L0 0V1.29093L5.89366 4.56521H8.2174ZM2.18884 0L8.2174 3.3495V0H2.18884Z" fill="#0052B4"/>
<path d="M8.2174 4.56521L0 0V1.29093L5.89366 4.56521H8.2174Z" fill="white"/>
<path d="M8.2174 4.56521L0 0V1.29093L5.89366 4.56521H8.2174Z" fill="#D80027"/>
<path d="M17.2933 4.56525L20.9986 2.50667V4.56525H17.2933ZM12.7812 3.98471V0H19.9531L12.7812 3.98471Z" fill="#0052B4"/>
<path d="M15.105 4.56521L20.9986 1.29093V0L12.7812 4.56521H15.105Z" fill="#D80027"/>
</g>
<defs>
<clipPath id="clip0_4334_30421">
<rect width="21" height="14" fill="white"/>
</clipPath>
</defs>
</svg>
