<svg width="21" height="14" viewBox="0 0 21 14" fill="none" xmlns="http://www.w3.org/2000/svg">
<g clip-path="url(#clip0_4334_30462)">
<path d="M0.703125 0H20.1103V14H0.703125V0Z" fill="#181A93"/>
<path d="M0 0H20.8108V4.66667H0V0Z" fill="#FFA44A"/>
<path d="M0 9.3335H20.8108V14.0002H0V9.3335Z" fill="#1A9F0B"/>
<path d="M0 4.6665H20.8108V9.33317H0V4.6665Z" fill="white"/>
<path d="M10.4069 8.4001C11.1732 8.4001 11.7943 7.7733 11.7943 7.0001C11.7943 6.2269 11.1732 5.6001 10.4069 5.6001C9.64069 5.6001 9.01953 6.2269 9.01953 7.0001C9.01953 7.7733 9.64069 8.4001 10.4069 8.4001Z" fill="white"/>
<path d="M10.4045 8.86663C9.38631 8.86663 8.55469 8.02745 8.55469 6.99997C8.55469 5.97248 9.38631 5.1333 10.4045 5.1333C11.4228 5.1333 12.2544 5.97248 12.2544 6.99997C12.2544 8.02745 11.4228 8.86663 10.4045 8.86663ZM10.4045 8.39997C11.1429 8.39997 11.7919 7.745 11.7919 6.99997C11.7919 6.25494 11.1469 5.59997 10.4045 5.59997C9.66216 5.59997 9.01715 6.25494 9.01715 6.99997C9.01715 7.745 9.66622 8.39997 10.4045 8.39997Z" fill="#181A93"/>
<path d="M10.4054 7.93356C10.9162 7.93356 11.3303 7.51569 11.3303 7.00023C11.3303 6.48476 10.9162 6.06689 10.4054 6.06689C9.89457 6.06689 9.48047 6.48476 9.48047 7.00023C9.48047 7.51569 9.89457 7.93356 10.4054 7.93356Z" fill="#181A93"/>
</g>
<defs>
<clipPath id="clip0_4334_30462">
<rect width="20.8108" height="14" fill="white"/>
</clipPath>
</defs>
</svg>
