<svg width="21" height="14" viewBox="0 0 21 14" fill="none" xmlns="http://www.w3.org/2000/svg">
<g clip-path="url(#clip0_4334_30436)">
<path d="M20.1094 14L0.702177 14L0.702175 1.59232e-06L20.1094 -1.04308e-07L20.1094 14Z" fill="#181A93"/>
<path d="M20.8125 14L0.00169043 14L0.00169002 9.33334L20.8125 9.33333L20.8125 14Z" fill="#0F5868"/>
<path d="M20.8125 4.6665L0.00169043 4.66651L0.00169002 -0.000160976L20.8125 -0.000162795L20.8125 4.6665Z" fill="#D80027"/>
<path d="M20.8125 9.3335L0.00169043 9.3335L0.00169002 4.66683L20.8125 4.66683L20.8125 9.3335Z" fill="white"/>
<path d="M10.4056 5.5999C9.63935 5.5999 9.01819 6.2267 9.01819 6.9999C9.01819 7.7731 9.63935 8.3999 10.4056 8.3999C11.1718 8.3999 11.793 7.7731 11.793 6.9999C11.793 6.2267 11.1718 5.5999 10.4056 5.5999Z" fill="white"/>
</g>
<defs>
<clipPath id="clip0_4334_30436">
<rect width="20.8108" height="14" fill="white" transform="translate(20.8125 14) rotate(180)"/>
</clipPath>
</defs>
</svg>
