<svg width="48" height="48" viewBox="0 0 48 48" fill="none" xmlns="http://www.w3.org/2000/svg">
<path d="M44 22.8571V38C44 39.1046 43.1046 40 42 40H12C10.8954 40 10 39.1046 10 38V33M44 22.8571V18C44 16.8954 43.1046 16 42 16H38M44 22.8571H38" stroke="currentcolor" stroke-width="3" stroke-linecap="round" stroke-linejoin="round"/>
<path d="M38 16V31C38 32.1046 37.1046 33 36 33H6C4.89543 33 4 32.1046 4 31V11C4 9.89543 4.89543 9 6 9H36C37.1046 9 38 9.89543 38 11V16ZM38 16H11" stroke="currentcolor" stroke-width="3" stroke-linecap="round" stroke-linejoin="round"/>
</svg>
