<svg width="25" height="24" viewBox="0 0 25 24" fill="none" xmlns="http://www.w3.org/2000/svg">
<path d="M12.5 4L12.5 8" stroke="currentcolor" stroke-width="1.5" stroke-linecap="round" stroke-linejoin="round"/>
<path d="M4.5 8L7 10.5" stroke="currentcolor" stroke-width="1.5" stroke-linecap="round" stroke-linejoin="round"/>
<path d="M18 10.5L20.5 8" stroke="currentcolor" stroke-width="1.5" stroke-linecap="round" stroke-linejoin="round"/>
<path d="M3.5 17H6.5" stroke="currentcolor" stroke-width="1.5" stroke-linecap="round" stroke-linejoin="round"/>
<path d="M12.5 17L13.5 11" stroke="currentcolor" stroke-width="1.5" stroke-linecap="round" stroke-linejoin="round"/>
<path d="M18.5 17H21.5" stroke="currentcolor" stroke-width="1.5" stroke-linecap="round" stroke-linejoin="round"/>
<path d="M9 20.001H4.5C3.24418 18.3295 2.5 16.2516 2.5 14C2.5 8.47715 6.97715 4 12.5 4C18.0228 4 22.5 8.47715 22.5 14C22.5 16.2516 21.7558 18.3295 20.5 20.001L16 20" stroke="currentcolor" stroke-width="1.5" stroke-linecap="round" stroke-linejoin="round"/>
<path d="M12.5 23C14.1569 23 15.5 21.6569 15.5 20C15.5 18.3431 14.1569 17 12.5 17C10.8431 17 9.5 18.3431 9.5 20C9.5 21.6569 10.8431 23 12.5 23Z" stroke="currentcolor" stroke-width="1.5" stroke-linecap="round" stroke-linejoin="round"/>
</svg>
