<svg width="42" height="42" viewBox="0 0 42 42" fill="none" xmlns="http://www.w3.org/2000/svg">
<path d="M5.25 36.15V5.85C5.25 5.51863 5.51863 5.25 5.85 5.25H36.15C36.4814 5.25 36.75 5.51863 36.75 5.85V36.15C36.75 36.4814 36.4814 36.75 36.15 36.75H5.85C5.51863 36.75 5.25 36.4814 5.25 36.15Z" stroke="currentcolor" stroke-width="3"/>
<path d="M28 13.1296C26.8739 12.5662 25.6088 12.25 24.2717 12.25C19.5653 12.25 15.75 16.1675 15.75 21C15.75 25.8325 19.5653 29.75 24.2717 29.75C25.6088 29.75 26.8739 29.4338 28 28.8704" stroke="currentcolor" stroke-width="3" stroke-linecap="square" stroke-linejoin="round"/>
<path d="M14 19.25H24.5" stroke="currentcolor" stroke-width="2" stroke-linecap="square" stroke-linejoin="round"/>
<path d="M14 22.75H24.5" stroke="currentcolor" stroke-width="2" stroke-linecap="square" stroke-linejoin="round"/>
</svg>
