<svg width="14" height="14" viewBox="0 0 14 14" fill="none" xmlns="http://www.w3.org/2000/svg">
<g clip-path="url(#clip0_4334_30803)">
<path d="M7 8.74975C7.96649 8.74975 8.74999 7.96625 8.74999 6.99975C8.74999 6.03326 7.96649 5.24976 7 5.24976C6.0335 5.24976 5.25 6.03326 5.25 6.99975C5.25 7.96625 6.0335 8.74975 7 8.74975Z" stroke="#00374D" stroke-miterlimit="1.5" stroke-linecap="round" stroke-linejoin="round"/>
<path d="M7.58203 5.24992C7.58203 5.24992 8.16536 4.08325 8.16536 2.91659C8.16536 1.74992 6.9987 0.583252 6.9987 0.583252C6.9987 0.583252 5.83203 1.74992 5.83203 2.91659C5.83203 4.08325 6.41536 5.24992 6.41536 5.24992" stroke="#00374D" stroke-miterlimit="1.5" stroke-linecap="round" stroke-linejoin="round"/>
<path d="M5.2487 6.41675C5.2487 6.41675 4.08203 5.83341 2.91536 5.83341C1.7487 5.83341 0.582031 7.00008 0.582031 7.00008C0.582031 7.00008 1.7487 8.16675 2.91536 8.16675C4.08203 8.16675 5.2487 7.58341 5.2487 7.58341" stroke="#00374D" stroke-miterlimit="1.5" stroke-linecap="round" stroke-linejoin="round"/>
<path d="M7.58203 8.75008C7.58203 8.75008 8.16536 9.91675 8.16536 11.0834C8.16536 12.2501 6.9987 13.4167 6.9987 13.4167C6.9987 13.4167 5.83203 12.2501 5.83203 11.0834C5.83203 9.91675 6.41536 8.75008 6.41536 8.75008" stroke="#00374D" stroke-miterlimit="1.5" stroke-linecap="round" stroke-linejoin="round"/>
<path d="M8.7513 6.41675C8.7513 6.41675 9.91797 5.83341 11.0846 5.83341C12.2513 5.83341 13.418 7.00008 13.418 7.00008C13.418 7.00008 12.2513 8.16675 11.0846 8.16675C9.91797 8.16675 8.7513 7.58341 8.7513 7.58341" stroke="#00374D" stroke-miterlimit="1.5" stroke-linecap="round" stroke-linejoin="round"/>
<path d="M6.17399 5.35024C6.17399 5.35024 5.76151 4.1128 4.93655 3.28784C4.11159 2.46288 2.46168 2.46288 2.46168 2.46288C2.46168 2.46288 2.46168 4.1128 3.28663 4.93776C4.11159 5.76272 5.34903 6.17519 5.34903 6.17519" stroke="#00374D" stroke-miterlimit="1.5" stroke-linecap="round" stroke-linejoin="round"/>
<path d="M5.35146 7.82504C5.35146 7.82504 4.11402 8.23751 3.28906 9.06247C2.4641 9.88743 2.4641 11.5373 2.4641 11.5373C2.4641 11.5373 4.11402 11.5373 4.93898 10.7124C5.76394 9.88743 6.17642 8.64999 6.17642 8.64999" stroke="#00374D" stroke-miterlimit="1.5" stroke-linecap="round" stroke-linejoin="round"/>
<path d="M8.64854 7.82504C8.64854 7.82504 9.88598 8.23751 10.7109 9.06247C11.5359 9.88743 11.5359 11.5373 11.5359 11.5373C11.5359 11.5373 9.88598 11.5373 9.06102 10.7124C8.23606 9.88743 7.82358 8.64999 7.82358 8.64999" stroke="#00374D" stroke-miterlimit="1.5" stroke-linecap="round" stroke-linejoin="round"/>
<path d="M7.82601 5.35024C7.82601 5.35024 8.23849 4.1128 9.06345 3.28784C9.88841 2.46288 11.5383 2.46288 11.5383 2.46288C11.5383 2.46288 11.5383 4.1128 10.7134 4.93776C9.88841 5.76272 8.65097 6.17519 8.65097 6.17519" stroke="#00374D" stroke-miterlimit="1.5" stroke-linecap="round" stroke-linejoin="round"/>
</g>
<defs>
<clipPath id="clip0_4334_30803">
<rect width="14" height="14" fill="white"/>
</clipPath>
</defs>
</svg>
