<svg width="25" height="24" viewBox="0 0 25 24" fill="none" xmlns="http://www.w3.org/2000/svg">
<path d="M5.5 12C4.28555 12.9122 3.5 14.3645 3.5 16.0004C3.5 18.7618 5.73858 21.0004 8.5 21.0004C11.2614 21.0004 13.5 18.7618 13.5 16.0004C13.5 14.3645 12.7144 12.9122 11.5 12" stroke="currentcolor" stroke-width="1.5" stroke-linecap="round" stroke-linejoin="round"/>
<path d="M5.5 12V3H11.5V12" stroke="currentcolor" stroke-width="1.5" stroke-linecap="round" stroke-linejoin="round"/>
<path d="M11.5 3L13.5 3" stroke="currentcolor" stroke-width="1.5" stroke-linecap="round" stroke-linejoin="round"/>
<path d="M11.5 6L13.5 6" stroke="currentcolor" stroke-width="1.5" stroke-linecap="round" stroke-linejoin="round"/>
<path d="M11.5 9H13.5" stroke="currentcolor" stroke-width="1.5" stroke-linecap="round" stroke-linejoin="round"/>
<path d="M8.5 14C7.39543 14 6.5 14.8954 6.5 16C6.5 17.1046 7.39543 18 8.5 18C9.60457 18 10.5 17.1046 10.5 16C10.5 14.8954 9.60457 14 8.5 14ZM8.5 14V9" stroke="currentcolor" stroke-width="1.5" stroke-linecap="round" stroke-linejoin="round"/>
<path fill-rule="evenodd" clip-rule="evenodd" d="M19.4991 3C19.4991 3 22.4991 5.99336 22.4994 7.88652C22.4997 9.5422 21.1552 10.8865 19.4997 10.8865C17.8442 10.8865 16.512 9.5422 16.5 7.88652C16.5098 5.99242 19.4991 3 19.4991 3Z" stroke="currentcolor" stroke-width="1.49993" stroke-miterlimit="1.5" stroke-linecap="round" stroke-linejoin="round"/>
</svg>
