<svg width="55" height="55" viewBox="0 0 55 55" fill="none" xmlns="http://www.w3.org/2000/svg">
<path d="M50.4154 20.6247V41.5413C50.4154 42.6459 49.5199 43.5413 48.4154 43.5413H6.58203C5.47746 43.5413 4.58203 42.6459 4.58203 41.5413V13.458C4.58203 12.3534 5.47746 11.458 6.58203 11.458H48.4154C49.5199 11.458 50.4154 12.3534 50.4154 13.458V20.6247ZM50.4154 20.6247H13.7487" stroke="currentcolor" stroke-width="3" stroke-linecap="round" stroke-linejoin="round"/>
<path d="M37.8125 30.6673C38.4207 30.123 39.2238 29.792 40.1042 29.792C42.0026 29.792 43.5417 31.331 43.5417 33.2295C43.5417 35.128 42.0026 36.667 40.1042 36.667C39.2238 36.667 38.4207 36.336 37.8125 35.7917" stroke="currentcolor" stroke-width="3" stroke-linecap="round" stroke-linejoin="round"/>
<path d="M37.8125 30.6673C37.2043 30.123 36.4012 29.792 35.5208 29.792C33.6224 29.792 32.0833 31.331 32.0833 33.2295C32.0833 35.128 33.6224 36.667 35.5208 36.667C36.4012 36.667 37.2043 36.336 37.8125 35.7917" stroke="currentcolor" stroke-width="3" stroke-linecap="round" stroke-linejoin="round"/>
</svg>
