<svg width="15" height="15" viewBox="0 0 15 15" fill="none" xmlns="http://www.w3.org/2000/svg">
<path d="M1.875 4.375L4.0625 5.625M13.125 10.625L10.9375 9.375M7.5 7.5L4.0625 5.625M7.5 7.5L4.0625 9.375M7.5 7.5V3.125M7.5 7.5V11.5625M7.5 7.5L10.9375 9.375M7.5 7.5L10.9375 5.625M7.5 1.25V3.125M7.5 13.75V11.5625M13.125 4.375L10.9375 5.625M1.875 10.625L4.0625 9.375M4.0625 5.625L1.875 6.25M4.0625 5.625L3.75 3.4375M4.0625 9.375L1.875 8.75M4.0625 9.375L3.75 11.5625M7.5 3.125L5.9375 2.5M7.5 3.125L9.0625 2.5M7.5 11.5625L9.0625 12.5M7.5 11.5625L5.9375 12.5M10.9375 9.375L11.25 11.5625M10.9375 9.375L13.125 8.75M10.9375 5.625L13.125 6.25M10.9375 5.625L11.25 3.4375" stroke="#00374D" stroke-linecap="round" stroke-linejoin="round"/>
</svg>
