<svg width="14" height="14" viewBox="0 0 14 14" fill="none" xmlns="http://www.w3.org/2000/svg">
<g clip-path="url(#clip0_4334_30798)">
<path d="M7 10.5C8.933 10.5 10.5 8.933 10.5 7C10.5 5.067 8.933 3.5 7 3.5C5.067 3.5 3.5 5.067 3.5 7C3.5 8.933 5.067 10.5 7 10.5Z" stroke="#00374D" stroke-width="1.2" stroke-linecap="round" stroke-linejoin="round"/>
<path d="M12.832 7L13.4154 7" stroke="#00374D" stroke-width="1.2" stroke-linecap="round" stroke-linejoin="round"/>
<path d="M7 1.16675V0.583415" stroke="#00374D" stroke-width="1.2" stroke-linecap="round" stroke-linejoin="round"/>
<path d="M7 13.4167V12.8334" stroke="#00374D" stroke-width="1.2" stroke-linecap="round" stroke-linejoin="round"/>
<path d="M11.668 11.6667L11.0846 11.0834" stroke="#00374D" stroke-width="1.2" stroke-linecap="round" stroke-linejoin="round"/>
<path d="M11.668 2.33325L11.0846 2.91659" stroke="#00374D" stroke-width="1.2" stroke-linecap="round" stroke-linejoin="round"/>
<path d="M2.33203 11.6667L2.91536 11.0834" stroke="#00374D" stroke-width="1.2" stroke-linecap="round" stroke-linejoin="round"/>
<path d="M2.33203 2.33325L2.91536 2.91659" stroke="#00374D" stroke-width="1.2" stroke-linecap="round" stroke-linejoin="round"/>
<path d="M0.582031 7L1.16536 7" stroke="#00374D" stroke-width="1.2" stroke-linecap="round" stroke-linejoin="round"/>
</g>
<defs>
<clipPath id="clip0_4334_30798">
<rect width="14" height="14" fill="white"/>
</clipPath>
</defs>
</svg>
